<?xml version="1.0" encoding="utf-8"?>
<!-- Generator: Adobe Illustrator 16.0.0, SVG Export Plug-In . SVG Version: 6.00 Build 0)  -->
<!DOCTYPE svg PUBLIC "-//W3C//DTD SVG 1.1//EN" "http://www.w3.org/Graphics/SVG/1.1/DTD/svg11.dtd">
<svg version="1.1" id="Layer_1" xmlns="http://www.w3.org/2000/svg" xmlns:xlink="http://www.w3.org/1999/xlink" x="0px" y="0px"
	 width="12px" height="12px" viewBox="0 0 12 12" enable-background="new 0 0 12 12" xml:space="preserve">
<g opacity="0.5">
	<polygon points="0,0 0,0.707 0.707,0 	"/>
	<polygon points="2.293,0 0,2.293 0,3.707 3.707,0 	"/>
	<polygon points="5.293,0 0,5.293 0,6.707 6.707,0 	"/>
	<polyline points="12,11.293 11.293,12 12,12 	"/>
	<polygon points="5.293,12 6.707,12 12,6.707 12,5.293 	"/>
	<polygon points="11.293,0 0,11.293 0,12 0.707,12 12,0.707 12,0 	"/>
	<polygon points="2.293,12 3.707,12 12,3.707 12,2.293 	"/>
	<polygon points="8.293,0 0,8.293 0,9.707 9.707,0 	"/>
	<polygon points="9.707,12 12,9.707 12,8.293 8.293,12 	"/>
</g>
</svg>
